PathFileType	4	(X/Y/Z)	C:\Users\Balu\Nextcloud\Documents\MA\Daten\C3D\P03\2016 - pre\Static01\marker_experimental.trc
DataRate	CameraRate	NumFrames	NumMarkers	Units	OrigDataRate	OrigDataStartFrame	OrigNumFrames
150.000000	150.000000	4	104	mm	150.000000	0	150
Frame#	Time	LFHD			LBHD			RFHD			RBHD			C7			T10			CLAV			STRN			RBAK			LSHO			LUPA			LELB			LFRA			LWRB			LWRA			LFIN			RSHO			RUPA			RELB			RFRA			RWRB			RWRA			RFIN			SACR			LASI			RASI			LT1			LT2			LT3			LS1			LS2			LS3			LHEE			LTOE			RT1			RT2			RT3			RS1			RS2			RS3			RHEE			RTOE			LKNE			LKNM			LANK			LANM			RKNM			RKNE			RANM			RANK			SACO			SACA			SACL			SACP			LKJC			RKJC			LAJC			RAJC			LMMA			RMMA			LTHI			RTHI			LTIB			RTIB			funktRKJC			funktLKJC			funktRHIP			funktLHIP			LHJC			RHJC			LPelvisAngles			RPelvisAngles			LFootProgressAngles			RFootProgressAngles			LHipAngles			RHipAngles			LKneeAngles			RKneeAngles			LAnkleAngles			RAnkleAngles			LFFootAngles			RFFootAngles			LAbsAnkleAngle			RAbsAnkleAngle			RNeckAngles			LNeckAngles			RSpineAngles			LSpineAngles			LShoulderAngles			LElbowAngles			LWristAngles			RShoulderAngles			RElbowAngles			RWristAngles			RThoraxAngles			LThoraxAngles			RHeadAngles			LHeadAngles			LNormalisedGRF			RNormalisedGRF			LGroundReactionForce			RGroundReactionForce			LGRF			RGRF			
		X1	Y1	Z1	X2	Y2	Z2	X3	Y3	Z3	X4	Y4	Z4	X5	Y5	Z5	X6	Y6	Z6	X7	Y7	Z7	X8	Y8	Z8	X9	Y9	Z9	X10	Y10	Z10	X11	Y11	Z11	X12	Y12	Z12	X13	Y13	Z13	X14	Y14	Z14	X15	Y15	Z15	X16	Y16	Z16	X17	Y17	Z17	X18	Y18	Z18	X19	Y19	Z19	X20	Y20	Z20	X21	Y21	Z21	X22	Y22	Z22	X23	Y23	Z23	X24	Y24	Z24	X25	Y25	Z25	X26	Y26	Z26	X27	Y27	Z27	X28	Y28	Z28	X29	Y29	Z29	X30	Y30	Z30	X31	Y31	Z31	X32	Y32	Z32	X33	Y33	Z33	X34	Y34	Z34	X35	Y35	Z35	X36	Y36	Z36	X37	Y37	Z37	X38	Y38	Z38	X39	Y39	Z39	X40	Y40	Z40	X41	Y41	Z41	X42	Y42	Z42	X43	Y43	Z43	X44	Y44	Z44	X45	Y45	Z45	X46	Y46	Z46	X47	Y47	Z47	X48	Y48	Z48	X49	Y49	Z49	X50	Y50	Z50	X51	Y51	Z51	X52	Y52	Z52	X53	Y53	Z53	X54	Y54	Z54	X55	Y55	Z55	X56	Y56	Z56	X57	Y57	Z57	X58	Y58	Z58	X59	Y59	Z59	X60	Y60	Z60	X61	Y61	Z61	X62	Y62	Z62	X63	Y63	Z63	X64	Y64	Z64	X65	Y65	Z65	X66	Y66	Z66	X67	Y67	Z67	X68	Y68	Z68	X69	Y69	Z69	X70	Y70	Z70	X71	Y71	Z71	X72	Y72	Z72	X73	Y73	Z73	X74	Y74	Z74	X75	Y75	Z75	X76	Y76	Z76	X77	Y77	Z77	X78	Y78	Z78	X79	Y79	Z79	X80	Y80	Z80	X81	Y81	Z81	X82	Y82	Z82	X83	Y83	Z83	X84	Y84	Z84	X85	Y85	Z85	X86	Y86	Z86	X87	Y87	Z87	X88	Y88	Z88	X89	Y89	Z89	X90	Y90	Z90	X91	Y91	Z91	X92	Y92	Z92	X93	Y93	Z93	X94	Y94	Z94	X95	Y95	Z95	X96	Y96	Z96	X97	Y97	Z97	X98	Y98	Z98	X99	Y99	Z99	X100	Y100	Z100	X101	Y101	Z101	X102	Y102	Z102	X103	Y103	Z103	X104	Y104	Z104	

1	0	-1133.1708984375	1440.35302734375	-382.0649108886718	-994.2142333984375	1420.98095703125	-361.3485412597655	-1139.960083007812	1440.812133789062	-498.0028686523436	-987.5003051757812	1420.682861328125	-510.0776062011718	-964.10400390625	1273.8896484375	-441.1589050292968	-915.230712890625	1094.520141601562	-443.0632629394531	-1095.646240234375	1212.9599609375	-425.0601806640624	-1128.394165039062	1160.16748046875	-420.2820129394531	-934.1135864257812	1176.93359375	-540.2881469726561	-1037.29833984375	1263.111206054688	-309.3128356933593	-977.5430908203125	1045.559326171875	-215.8321380615234	-968.0054931640625	972.0116577148438	-187.4798583984374	-984.0220947265625	889.6358642578125	-143.5626983642578	-1030.117919921875	770.089599609375	-87.71611785888668	-1087.840209960938	777.041015625	-122.1370162963867	-1117.895141601562	719.883544921875	-75.56871032714839	-1062.313598632812	1251.252685546875	-557.4508056640624	-1053.962890625	1077.232299804688	-646.9088134765624	-1031.901489257812	958.699951171875	-700.7841186523436	-1092.520141601562	829.9064331054688	-753.3900756835938	-1103.940795898438	749.7221069335938	-773.1594848632812	-1146.665771484375	745.8330078125	-721.1483154296875	-1188.2080078125	698.8831787109375	-766.7637939453125	-918.4747924804688	874.5426635742188	-428.3165893554687	-1073.995727539062	870.943115234375	-276.0162048339843	-1127.219848632812	879.0072631835938	-518.5843505859375	-1129.932250976562	585.767578125	-242.2849731445312	-1080.85302734375	474.0944519042969	-230.4490509033203	-1204.695556640625	531.2861328125	-275.8287048339843	-1034.0556640625	216.8831787109375	-282.3900756835938	-951.0731811523438	148.5581665039063	-341.9718017578125	-1063.027221679688	131.2842712402344	-254.4027557373047	-973.886962890625	41.86734008789065	-367.9279479980469	-1083.526245117188	41.46903228759767	-262.5615234375	-1135.057861328125	608.27880859375	-590.239013671875	-1057.71728515625	510.6788940429688	-584.497802734375	-1199.7783203125	534.7575073242188	-580.6488037109375	-1089.997314453125	267.0842590332032	-586.1029052734375	-981.9888916015625	217.6316223144532	-561.3419189453125	-1117.220825195312	176.8344268798828	-581.7576904296875	-982.0199584960938	45.05433273315433	-500.06689453125	-1123.464233398438	41.88113784790043	-570.5022583007812	-1149.450927734375	432.3818664550781	-267.4565124511719	-1165.127197265625	421.4636535644531	-367.1423950195312	-994.478271484375	49.72745513916018	-304.89306640625	-1045.193115234375	46.96824264526369	-357.0814208984375	-1165.928833007812	424.1323242187501	-464.4552001953125	-1166.016723632812	440.1233825683594	-566.8656616210938	-1063.049560546875	52.79234695434573	-490.65869140625	-1019.232482910156	47.71815109252933	-552.1856079101562	-987.2842407226562	874.8817749023438	-422.1688232421874	-992.950439453125	874.886474609375	-420.9253845214843	-986.0416259765625	874.6934814453125	-416.5056152343749	-986.8349609375	932.861328125	-420.3396911621093	-1157.2890625	426.9227600097656	-317.2994689941406	-1165.972778320312	432.1278686523438	-515.660400390625	-1019.835693359375	48.34785079956057	-330.9872436523438	-1041.140991210938	50.25524902343753	-521.422119140625	-1045.193115234375	46.96824264526369	-357.0814208984375	-1063.049560546875	52.79234695434573	-490.65869140625	-1086.870971679688	611.0791015625	-223.8563995361328	-1119.402587890625	624.5819702148438	-600.4639892578125	-1009.733093261719	243.9898071289063	-242.1935424804687	-1040.0263671875	244.3540496826172	-612.603271484375	0	0	0	0	0	0	0	0	0	0	0	0	-1047.522338867188	782.9131469726562	-352.4199829101562	-1071.84130859375	785.855712890625	-465.8247070312499	-0.4438469707965851	-12.38342380523682	1.806747198104858	-0.4438469707965851	12.38342380523682	-1.806747198104858	0.06152002140879631	-43.90836715698242	-13.2617998123169	1.279881358146667	-26.47110366821289	-9.367562294006349	17.8443546295166	5.729106426239014	3.420851707458497	12.82012939453125	-10.27009582519531	8.928735733032227	37.71408081054688	-34.14761352539062	-2.174623966217043	32.96866226196289	-30.91317367553711	-6.943499088287355	15.59401893615723	-2.500645160675049	-1.283529043197632	14.69921112060547	5.335064888000488	0.4584581553936008	3.230250935698308e-16	1.590277359294755e-15	3.946186317305015e-15	-1.789061910092591e-15	1.590277359294756e-15	-8.970158532520082e-15	15.32906532287598	0	0	14.56353378295898	0	0	-11.70808601379395	8.169219970703125	0.3978295922279363	-11.70808601379395	-8.169219970703125	-0.3978295922279363	4.10624361038208	5.934086799621582	-2.996870279312133	4.10624361038208	-5.934086799621582	2.996870279312133	-9.310194969177246	-11.29299926757812	-19.04472732543945	38.89196395874023	-8.857845013032772e-13	-1.590277359294809e-15	16.33112144470215	128.3331909179688	12.33349990844727	-8.94590950012207	0.8844676017761245	-24.45312118530273	36.18128204345703	-1.159312229548348e-12	-3.180554718589581e-15	19.18454551696777	132.2441253662109	0.04705240577460145	3.973234176635742	6.514394283294678	0.7074934244155888	3.973234176635742	-6.514394283294678	-0.7074934244155888	7.718413352966309	-1.683161973953247	-0.03235216438770305	7.718413352966309	1.683161973953247	0.03235216438770305	0	0	0	0	0	0	0	0	0	0	0	0	0	0	0	0	0	0	
2	0.006666666666666667	-1133.125244140625	1440.328247070312	-382.0867614746093	-994.1587524414062	1420.988159179688	-361.359405517578	-1139.87939453125	1440.797485351562	-498.0123901367186	-987.453857421875	1420.72705078125	-510.0928344726561	-963.9762573242188	1273.898681640625	-441.1930541992187	-915.1838989257812	1094.50537109375	-443.1301879882812	-1095.560791015625	1212.940795898438	-425.1138305664062	-1128.302490234375	1160.15771484375	-420.3540649414062	-934.0779418945312	1176.922607421875	-540.3865356445311	-1037.218017578125	1263.090087890625	-309.3678894042968	-977.4660034179688	1045.531005859375	-215.8900451660156	-967.9536743164062	971.986083984375	-187.5525665283203	-983.90869140625	889.603271484375	-143.6142883300781	-1029.977294921875	770.0299682617188	-87.8147811889648	-1087.736450195312	776.932373046875	-122.252197265625	-1117.7470703125	719.7950439453125	-75.67109680175777	-1062.234497070312	1251.289672851562	-557.4803466796874	-1053.942016601562	1077.26953125	-646.9658203124999	-1031.911865234375	958.7471923828125	-700.8591918945311	-1092.605834960938	829.984375	-753.5220336914062	-1103.984375	749.8091430664062	-773.271240234375	-1146.740600585938	745.9244995117188	-721.2733154296875	-1188.304565429688	699.0096435546875	-766.9347534179688	-918.42529296875	874.504638671875	-428.3910217285156	-1073.977661132812	870.98486328125	-276.0945434570312	-1127.145751953125	879.0393676757812	-518.6912231445312	-1129.878295898438	585.8109130859375	-242.3082733154297	-1080.741333007812	474.1145935058594	-230.4788055419922	-1204.653442382812	531.3171997070312	-275.8155517578124	-1033.98779296875	216.8990936279297	-282.3991088867188	-951.02099609375	148.5507354736328	-341.990966796875	-1062.95849609375	131.3207092285157	-254.3856506347656	-973.885498046875	41.84811782836916	-367.9213256835938	-1083.501953125	41.46053695678712	-262.5152587890625	-1134.98095703125	608.2802734375	-590.3199462890625	-1057.623657226562	510.6821289062501	-584.5210571289062	-1199.702880859375	534.77099609375	-580.7407836914062	-1089.9638671875	267.0885314941407	-586.1409301757812	-981.9554443359375	217.6102600097657	-561.3308715820312	-1117.189697265625	176.832748413086	-581.7974853515625	-982.0292358398438	45.04576492309573	-500.0732116699219	-1123.460327148438	41.88603210449222	-570.4993896484375	-1149.400024414062	432.4314270019531	-267.3996887207031	-1165.073974609375	421.481201171875	-367.1214904785156	-994.4437255859375	49.69629669189455	-304.8766479492188	-1045.181518554688	46.98759841918947	-357.0458984375	-1165.900512695312	424.1475219726563	-464.522216796875	-1165.960815429688	440.1358032226563	-566.928955078125	-1063.059326171875	52.79469680786136	-490.6604614257812	-1019.249816894531	47.71253204345707	-552.1998291015625	-987.2323608398438	874.8709716796875	-422.2351684570312	-992.8988037109375	874.8780517578125	-420.9930114746093	-985.9910888671875	874.6829223632812	-416.5716247558593	-986.7606811523438	932.8505859375	-420.4134521484374	-1157.237060546875	426.9563293457031	-317.2605895996094	-1165.9306640625	432.1416625976563	-515.7255859375	-1019.812561035156	48.34194946289065	-330.9612731933594	-1041.154663085938	50.25361633300784	-521.4301147460938	-1045.181518554688	46.98759841918947	-357.0458984375	-1063.059326171875	52.79469680786136	-490.6604614257812	-1086.852172851562	611.1442260742188	-223.8773651123047	-1119.3408203125	624.5870361328125	-600.5347290039062	-1009.671691894531	244.0005798339844	-242.1729431152343	-1040.025268554688	244.3327941894532	-612.6485595703125	0	0	0	0	0	0	0	0	0	0	0	0	-1047.52294921875	782.9349365234375	-352.4884948730468	-1071.814575195312	785.8724975585938	-465.8992004394531	-0.4660019278526306	-12.37008953094482	1.799505591392516	-0.4660019278526306	12.37008953094482	-1.799505591392516	0.06260461360216141	-43.91762161254883	-13.25778007507325	1.275802969932556	-26.4716739654541	-9.358263969421388	17.81690979003906	5.723587036132812	3.440836191177369	12.79710865020752	-10.27113056182861	8.925985336303711	37.70357131958008	-34.15652084350586	-2.196362257003786	32.95979690551758	-30.8912181854248	-6.94248676300049	15.58830547332764	-2.496159553527832	-1.281786680221558	14.69901466369629	5.326117038726807	0.456101477146149	1.024983452164996e-15	-5.681875040798279e-31	9.279206126622339e-15	3.975693398236888e-16	1.590277359294756e-15	-7.379880432071498e-15	15.32815647125244	0	0	14.56466102600098	0	0	-11.67226886749268	8.16732120513916	0.3966342806816106	-11.67226886749268	-8.16732120513916	-0.3966342806816106	4.112270832061768	5.925459384918213	-2.977168321609497	4.112270832061768	-5.925459384918213	2.977168321609497	-9.327881813049316	-11.28534698486328	-19.05470657348633	38.87187194824219	-4.293748923035398e-14	-7.951386796473802e-16	16.33510398864746	128.3593444824219	12.3186321258545	-8.943675994873047	0.8806847333908095	-24.44674301147461	36.17670059204102	-1.900381327996081e-12	-1.163647955244899e-28	19.19539451599121	132.2421112060547	0.01845383457840299	3.954640626907349	6.508895397186279	0.694867849349976	3.954640626907349	-6.508895397186279	-0.694867849349976	7.701195240020752	-1.684398055076599	-0.04322247579693805	7.701195240020752	1.684398055076599	0.04322247579693805	0	0	0	0	0	0	0	0	0	0	0	0	0	0	0	0	0	0	
3	0.01333333333333333	-1133.0771484375	1440.307739257812	-382.103057861328	-994.103515625	1421.002075195312	-361.3675842285155	-1139.806640625	1440.791748046875	-498.022979736328	-987.4026489257812	1420.778198242188	-510.106231689453	-963.8591918945312	1273.914306640625	-441.2317504882812	-915.1331176757812	1094.497680664062	-443.1965637207031	-1095.478149414062	1212.92822265625	-425.1707763671874	-1128.212646484375	1160.1494140625	-420.4292907714843	-934.0228881835938	1176.929443359375	-540.4688720703124	-1037.133666992188	1263.072998046875	-309.4214782714843	-977.3836059570312	1045.503540039062	-215.9564666748046	-967.888671875	971.953857421875	-187.6210632324218	-983.8115234375	889.5757446289062	-143.6828155517578	-1029.845336914062	769.9777221679688	-87.90392303466793	-1087.624389648438	776.8833618164062	-122.3525695800781	-1117.590576171875	719.703125	-75.77424621582027	-1062.155517578125	1251.334838867188	-557.5144653320311	-1053.908813476562	1077.314697265625	-647.0268554687499	-1031.915405273438	958.7977905273438	-700.9340820312499	-1092.68115234375	830.0690307617188	-753.6449584960938	-1104.046264648438	749.8948974609375	-773.3819580078125	-1146.810546875	746.0235595703125	-721.3908081054688	-1188.383911132812	699.12353515625	-767.0758056640625	-918.3856811523438	874.47998046875	-428.4603271484374	-1073.955688476562	871.0264282226562	-276.1732177734374	-1127.075439453125	879.0722045898438	-518.7930908203125	-1129.818237304688	585.8524780273438	-242.3214111328125	-1080.630859375	474.1409912109375	-230.493423461914	-1204.6025390625	531.3448486328125	-275.7908020019531	-1033.920166015625	216.9175415039063	-282.3970642089844	-950.9719848632812	148.5474548339844	-342.0051879882812	-1062.891235351562	131.3532257080078	-254.3642120361328	-973.8829345703125	41.83450698852541	-367.91357421875	-1083.478393554688	41.45169067382814	-262.4716186523438	-1134.8935546875	608.28515625	-590.4011840820312	-1057.529174804688	510.6853637695313	-584.5433959960938	-1199.619018554688	534.7830200195312	-580.8435668945312	-1089.927490234375	267.0919189453126	-586.1831665039062	-981.92626953125	217.5912780761719	-561.3322143554688	-1117.15576171875	176.8323669433594	-581.8367309570312	-982.0361938476562	45.0385665893555	-500.0780639648438	-1123.456909179688	41.88924026489261	-570.4996948242188	-1149.304443359375	432.4633483886719	-267.3688049316406	-1165.022705078125	421.4953308105469	-367.0953369140625	-994.4155883789062	49.67508316040041	-304.8565673828125	-1045.169311523438	47.00783920288088	-357.0116577148438	-1165.872192382812	424.1667785644532	-464.5979614257812	-1165.899780273438	440.1495971679688	-567.0042724609375	-1063.064575195312	52.79831314086917	-490.6643676757812	-1019.260620117188	47.70682907104496	-552.2108764648438	-987.1813354492188	874.8687133789062	-422.3028564453124	-992.8480224609375	874.8777465820312	-421.0618591308593	-985.9412841796875	874.680908203125	-416.6390686035156	-986.6913452148438	932.848388671875	-420.4875793457031	-1157.16357421875	426.9793395996094	-317.2320861816406	-1165.885986328125	432.1582031250001	-515.8011474609375	-1019.792419433594	48.34146118164065	-330.9341125488281	-1041.16259765625	50.25257110595706	-521.4376220703125	-1045.169311523438	47.00783920288088	-357.0116577148438	-1063.064575195312	52.79831314086917	-490.6643676757812	-1086.764282226562	611.18603515625	-223.9081573486328	-1119.268798828125	624.5967407226562	-600.6113891601562	-1009.611389160156	244.0049591064453	-242.1559448242187	-1040.014404296875	244.3125915527344	-612.6957397460938	0	0	0	0	0	0	0	0	0	0	0	0	-1047.515625	782.9598388671875	-352.5581970214843	-1071.78369140625	785.8929443359375	-465.9740600585937	-0.4842274785041809	-12.35862636566162	1.793376088142394	-0.4842274785041809	12.35862636566162	-1.793376088142394	0.06874007731676102	-43.92633438110352	-13.24892902374268	1.272722125053406	-26.47237205505371	-9.347246170043947	17.79079818725586	5.690317630767822	3.45949673652649	12.77769660949707	-10.27739906311035	8.924966812133789	37.68851470947266	-34.13886260986328	-2.197930574417116	32.95185470581055	-30.8686637878418	-6.942567825317385	15.57636260986328	-2.49410605430603	-1.280183911323548	14.69899272918701	5.32036304473877	0.454589277505875	-4.162053881522635e-16	3.621184973092475e-31	-5.913843853776754e-15	3.975693398236888e-16	4.770832183763384e-15	1.987846778527783e-15	15.32142925262451	0	0	14.56568717956543	0	0	-11.63988876342773	8.165326118469238	0.3974938392639165	-11.63988876342773	-8.165326118469238	-0.3974938392639165	4.117872714996338	5.918976306915283	-2.959794521331787	4.117872714996338	-5.918976306915283	2.959794521331787	-9.341766357421875	-11.28628635406494	-19.0628719329834	38.85815811157227	-3.741922570410505e-12	-3.180554718589739e-15	16.31223106384277	128.3586578369141	12.32481288909913	-8.938265800476074	0.8733181357383742	-24.44030380249023	36.17461776733398	-2.054638360490801e-12	-2.385416091881818e-15	19.19133949279785	132.2422943115234	0.01269833091647243	3.939807653427124	6.503200531005859	0.6835108995437627	3.939807653427124	-6.503200531005859	-0.6835108995437627	7.683592319488525	-1.68558394908905	-0.05498157441616069	7.683592319488525	1.68558394908905	0.05498157441616069	0	0	0	0	0	0	0	0	0	0	0	0	0	0	0	0	0	0	
4	0.02	-1133.02685546875	1440.29150390625	-382.1142272949218	-994.0482177734375	1421.022216796875	-361.3734741210936	-1139.741943359375	1440.794311523438	-498.0347595214843	-987.3467407226562	1420.8359375	-510.1180419921874	-963.7536010742188	1273.935180664062	-441.2749938964843	-915.07861328125	1094.49658203125	-443.2624816894531	-1095.39697265625	1212.923583984375	-425.2300720214843	-1128.126220703125	1160.145141601562	-420.5075073242187	-933.9497680664062	1176.95068359375	-540.5368041992186	-1037.045043945312	1263.06005859375	-309.4736633300781	-977.2962646484375	1045.47705078125	-216.0320281982421	-967.8107299804688	971.9224243164062	-187.6876068115234	-983.7205200195312	889.5546264648438	-143.7683105468749	-1029.714721679688	769.9306030273438	-87.98621368408199	-1087.49951171875	776.8709716796875	-122.434341430664	-1117.427734375	719.6088256835938	-75.8778915405273	-1062.077758789062	1251.386474609375	-557.5539550781249	-1053.862915039062	1077.36767578125	-647.0911865234374	-1031.912475585938	958.851806640625	-701.0086669921874	-1092.744506835938	830.1595458984375	-753.7601928710938	-1104.121337890625	749.9840087890625	-773.494140625	-1146.87646484375	746.1300048828125	-721.5012817382812	-1188.453247070312	699.23046875	-767.1959838867188	-918.3544921875	874.4693603515625	-428.5246582031249	-1073.929931640625	871.0672607421875	-276.2518005371093	-1127.008666992188	879.1054077148438	-518.8899536132812	-1129.751586914062	585.8917236328125	-242.323974609375	-1080.521118164062	474.1710510253906	-230.495376586914	-1204.543579101562	531.3695068359375	-275.7536621093749	-1033.853271484375	216.9381408691407	-282.3851623535156	-950.9263916015625	148.548080444336	-342.0147094726562	-1062.825561523438	131.382797241211	-254.3382415771484	-973.8787841796875	41.82606506347658	-367.9046630859375	-1083.455078125	41.44268798828126	-262.4300842285156	-1134.796142578125	608.2928466796875	-590.4834594726562	-1057.433837890625	510.6894226074219	-584.5646362304688	-1199.527099609375	534.7943725585938	-580.955322265625	-1089.887939453125	267.0942382812501	-586.2298583984375	-981.9005126953125	217.5745391845703	-561.3448486328125	-1117.119018554688	176.8328247070313	-581.875732421875	-982.0409545898438	45.03271484375003	-500.0814514160156	-1123.453857421875	41.89079284667972	-570.5031127929688	-1149.155395507812	432.4766235351562	-267.3739013671875	-1164.975341796875	421.5061340332031	-367.0611572265625	-994.393310546875	49.66297912597658	-304.8334655761719	-1045.156372070312	47.02875900268557	-356.9787902832031	-1165.846557617188	424.1889953613282	-464.6821594238281	-1165.83447265625	440.1644287109376	-567.0919799804688	-1063.0654296875	52.80302429199222	-490.6702880859375	-1019.265014648438	47.70102691650394	-552.2185668945312	-987.1309204101562	874.8753662109375	-422.3714599609374	-992.7978515625	874.8859252929688	-421.1314086914062	-985.891845703125	874.687744140625	-416.7074279785156	-986.6267700195312	932.8550415039062	-420.5611572265624	-1157.0654296875	426.9913635253906	-317.217529296875	-1165.840454101562	432.1766967773438	-515.8870849609375	-1019.774780273438	48.34586715698244	-330.9061279296875	-1041.165283203125	50.25202560424808	-521.4444580078125	-1045.156372070312	47.02875900268557	-356.9787902832031	-1063.0654296875	52.80302429199222	-490.6702880859375	-1086.593139648438	611.1991577148438	-223.9523010253906	-1119.185668945312	624.6100463867188	-600.6944580078125	-1009.550109863281	244.0027770996094	-242.145278930664	-1039.994506835938	244.2932434082032	-612.7448120117188	0	0	0	0	0	0	0	0	0	0	0	0	-1047.499755859375	782.9876098632812	-352.6289672851562	-1071.748046875	785.9168701171875	-466.0491943359374	-0.498189240694046	-12.34891986846924	1.78846800327301	-0.498189240694046	12.34891986846924	-1.78846800327301	0.07930027693510056	-43.93492889404297	-13.23584270477295	1.270580530166626	-26.47330856323242	-9.334677696228029	17.76581573486328	5.622366905212402	3.476440906524659	12.76260471343994	-10.28963565826416	8.925693511962891	37.66813278198242	-34.09006500244141	-2.174395084381106	32.94552993774414	-30.84472465515137	-6.943291664123537	15.55792236328125	-2.494526624679565	-1.278708219528198	14.6994104385376	5.317649841308594	0.4538899660110477	-2.049966904329992e-15	3.180554718589511e-15	-9.369280457266309e-15	1.590277359294755e-15	-3.18055471858951e-15	-1.416340731762861e-15	15.30792713165283	0	0	14.56690120697021	0	0	-11.61042213439941	8.163398742675781	0.4001148045063024	-11.61042213439941	-8.163398742675781	-0.4001148045063024	4.122170925140381	5.914289474487305	-2.94457197189331	4.122170925140381	-5.914289474487305	2.94457197189331	-9.35299015045166	-11.29361915588379	-19.06975555419922	38.84819412231445	-2.555575759691231e-12	-7.951386796475341e-16	16.276123046875	128.3366241455078	12.34912395477296	-8.93043327331543	0.8617923259735122	-24.43367767333984	36.17475509643555	9.780206158827021e-13	-1.590277359294695e-15	19.17681884765625	132.2484436035156	0.02374099753797864	3.928185701370239	6.497514247894287	0.6732193827629094	3.928185701370239	-6.497514247894287	-0.6732193827629094	7.66563892364502	-1.686697959899902	-0.06751789897680292	7.66563892364502	1.686697959899902	0.06751789897680292	0	0	0	0	0	0	0	0	0	0	0	0	0	0	0	0	0	0	
